<svg xmlns="http://www.w3.org/2000/svg" viewBox="0 0 358.53 134.56"><defs><style>.cls-1{font-size:87.71px;fill:#403146;font-family:CurlzMT, Curlz MT;}.cls-2{fill:#d55a72;fill-rule:evenodd;}</style></defs><g id="Layer_2" data-name="Layer 2"><g id="OBJECTS"><text class="cls-1" transform="translate(0 89.89)">Futurelove</text><path class="cls-2" d="M138.87,134.42a1.74,1.74,0,1,1-1.36-3.2,114.58,114.58,0,0,0,21.73-12.77,4.44,4.44,0,0,0-.83-7.63A99.13,99.13,0,0,1,130.92,92.9a1.74,1.74,0,1,1,2.37-2.54,97.73,97.73,0,0,0,32.8,19.82,4.33,4.33,0,0,0,4.46-.83,168.53,168.53,0,0,0,18-18.42,1.74,1.74,0,0,1,2.67,2.22,169.65,169.65,0,0,1-12.85,13.76,4.43,4.43,0,0,0,2.08,7.51l1.22.27a133.7,133.7,0,0,0,31.05,2.89,1.43,1.43,0,0,1,1.08.42,1.47,1.47,0,0,1,.45,1.07v.49a1.5,1.5,0,0,1-1.47,1.5,137.16,137.16,0,0,1-31.85-3q-4.82-1-9.35-2.42a4.29,4.29,0,0,0-4.06.8L166,117.7c-9.32,7.36-18.74,13.15-27.08,16.72Zm81.6-17.2c4.14-.3,8.39-.76,12.74-1.41a1.5,1.5,0,0,1,1.69,1.2l.09.47a1.49,1.49,0,0,1-1.25,1.76c-4.44.67-8.79,1.15-13,1.45a1.51,1.51,0,0,1-1.6-1.4c0-.15,0-.31,0-.47a1.51,1.51,0,0,1,1.39-1.6ZM216.11,43.8a1.74,1.74,0,1,1-3.43-.59l0-.14c1.59-9.92-.15-18.7-4-25.25a24.76,24.76,0,0,0-10-9.64,21.52,21.52,0,0,0-13.49-1.92c-6.6,1.15-13.68,5.21-20.43,13-1.31,1.51-2.53,3.08-3.66,4.67a4.4,4.4,0,0,0,.48,5.68c.56.57,1.1,1.14,1.6,1.72,3.5,4,5.71,8.36,6,12.06a1.74,1.74,0,1,1-3.47.27,16.82,16.82,0,0,0-3.54-8,4.43,4.43,0,0,0-7.79,1.26,21.24,21.24,0,0,0-1.16,6.62,1.74,1.74,0,0,1-3.48,0,29.85,29.85,0,0,1,3-12,4.42,4.42,0,0,0-2-5.71c-.51-.27-1-.52-1.53-.76a32.64,32.64,0,0,0-8-2.6A22.23,22.23,0,0,0,126,24.8a24.22,24.22,0,0,0-9.94,11.11,32,32,0,0,0-2.45,7.89,1.75,1.75,0,0,1-3.44-.6,35.52,35.52,0,0,1,2.73-8.74,27.76,27.76,0,0,1,11.39-12.7,25.67,25.67,0,0,1,17.41-2.71,36.12,36.12,0,0,1,8.87,2.87c.7.32,1.39.67,2.06,1a4.4,4.4,0,0,0,5.72-1.31q1.71-2.4,3.68-4.67c7.32-8.43,15.12-12.87,22.47-14.14a25,25,0,0,1,15.63,2.24,28.23,28.23,0,0,1,11.5,11c4.27,7.2,6.2,16.81,4.48,27.59Z"/><path class="cls-2" d="M149,1.66A6.11,6.11,0,1,1,141.5,6,6.12,6.12,0,0,1,149,1.66Z"/><path class="cls-2" d="M126.86.17a4.85,4.85,0,1,1-5.93,3.42A4.85,4.85,0,0,1,126.86.17Z"/><path class="cls-2" d="M195.41,109.53a3.35,3.35,0,1,0-3.35-3.34A3.35,3.35,0,0,0,195.41,109.53Z"/></g></g></svg>