<svg xmlns="http://www.w3.org/2000/svg" viewBox="0 0 275.56 164.7"><defs><style>.cls-1{font-size:50.61px;fill:#403146;font-family:VinerHandITC, Viner Hand ITC;}.cls-2{font-size:18.98px;font-family:Montserrat-Bold, Montserrat Bold;font-weight:700;}.cls-2,.cls-5{fill:#d55a72;}.cls-3{letter-spacing:-0.01em;}.cls-4{letter-spacing:-0.08em;}.cls-5{fill-rule:evenodd;}</style></defs><g id="Layer_2" data-name="Layer 2"><g id="OBJECTS"><text class="cls-1" transform="translate(0 97.1)">FutureLove</text><text class="cls-2" transform="translate(105.92 124.77)"><tspan class="cls-3">D</tspan><tspan class="cls-4" x="12.37" y="0">A</tspan><tspan x="22.49" y="0">Y</tspan></text><text/><path class="cls-5" d="M126.65,42.32a6,6,0,1,0-9.55,6.33l7.79,7.79a2.49,2.49,0,0,0,3.52,0l7.8-7.79a6,6,0,1,0-9.56-6.33Z"/><path class="cls-5" d="M63.14,52.89A1.78,1.78,0,1,1,60,51.15,76.74,76.74,0,0,1,88.1,22.52,76.33,76.33,0,0,1,193.25,51.09a1.78,1.78,0,0,1-3.11,1.75,73.17,73.17,0,0,0-26.76-27.27A72.76,72.76,0,0,0,63.14,52.89ZM196,110.44a1.78,1.78,0,0,1,3.39,1.08,76.34,76.34,0,0,1-145.48,0,1.78,1.78,0,1,1,3.39-1.07,72.78,72.78,0,0,0,138.7,0Z"/><path class="cls-5" d="M178.39,17.89a14.47,14.47,0,0,1,8.3,26.33A75.13,75.13,0,0,0,165.92,25,14.46,14.46,0,0,1,178.39,17.89Z"/><path class="cls-5" d="M162.92,13.61a6.81,6.81,0,1,0-6.81-6.81A6.82,6.82,0,0,0,162.92,13.61Z"/><path class="cls-5" d="M91,148.59l-.14.25.14-.25Zm-.19.35-.17.29.17-.29Zm-.19.32-.19.32.19-.32Zm-.22.36c-.13.22-.28.44-.42.65.14-.21.29-.43.42-.65Zm-.54.82c-.23.33-.47.65-.73,1,.26-.31.5-.63.73-1Zm-.74,1c-.25.32-.52.63-.79.92a74.82,74.82,0,0,1-25.24-25,17.76,17.76,0,1,0,25.24,25C88.63,152,88.9,151.73,89.15,151.41Z"/></g></g></svg>